PathFileType	4	(X/Y/Z)	/Users/itak/Documents/Research/Walk-IL/dataset/trc/00201_00008.trc
DataRate	CameraRate	NumFrames	NumMarkers	Units	OrigDataRate	OrigDataStartFrame	OrigNumFrames
100.000000	100.000000	4	54	mm	100.000000	70	567
Frame#	Time	RPSI			LPSI			L3			STRN			T10			C7			CLAV			RBAK			LBAK			LSHO			LUPA			LAEL			LAOL			LWTS			LWPS			LFRA			LIFD			LHPS			LHTS			RSHO			RUPA			RAEL			RAOL			RWTS			RWPS			RFRA			RIFD			RHTS			RHPS			RBHD			LFHD			RFHD			LBHD			LHIP			RASI			LASI			LKNE			LTHI			LANK			LTIP			LTOE			LMT1			LMT5			LHEE			RKNE			RTHI			RANK			RTIP			RTOE			RMT1			RMT5			RHEE			RHIP			*53			
		X1	Y1	Z1	X2	Y2	Z2	X3	Y3	Z3	X4	Y4	Z4	X5	Y5	Z5	X6	Y6	Z6	X7	Y7	Z7	X8	Y8	Z8	X9	Y9	Z9	X10	Y10	Z10	X11	Y11	Z11	X12	Y12	Z12	X13	Y13	Z13	X14	Y14	Z14	X15	Y15	Z15	X16	Y16	Z16	X17	Y17	Z17	X18	Y18	Z18	X19	Y19	Z19	X20	Y20	Z20	X21	Y21	Z21	X22	Y22	Z22	X23	Y23	Z23	X24	Y24	Z24	X25	Y25	Z25	X26	Y26	Z26	X27	Y27	Z27	X28	Y28	Z28	X29	Y29	Z29	X30	Y30	Z30	X31	Y31	Z31	X32	Y32	Z32	X33	Y33	Z33	X34	Y34	Z34	X35	Y35	Z35	X36	Y36	Z36	X37	Y37	Z37	X38	Y38	Z38	X39	Y39	Z39	X40	Y40	Z40	X41	Y41	Z41	X42	Y42	Z42	X43	Y43	Z43	X44	Y44	Z44	X45	Y45	Z45	X46	Y46	Z46	X47	Y47	Z47	X48	Y48	Z48	X49	Y49	Z49	X50	Y50	Z50	X51	Y51	Z51	X52	Y52	Z52	X53	Y53	Z53	X54	Y54	Z54	

71	0.7000000000000001	-1557.081665039062	1053.7490234375	-491.3005676269531	-1549.25244140625	1052.97265625	-615.4978637695312	-1551.536254882812	1089.508666992188	-550.6136474609375	-1302.73974609375	1302.045288085938	-548.092041015625	-1590.646484375	1242.5068359375	-555.546630859375	-1534.7607421875	1514.67626953125	-566.6260986328125	-1332.900756835938	1414.717529296875	-559.75146484375	-1598.200561523438	1338.15869140625	-457.8451538085938	-1539.157836914062	1487.54736328125	-668.3159790039062	-1461.085693359375	1475.318725585938	-746.14892578125	-1486.576049804688	1339.083862304688	-816.294677734375	-1467.04541015625	1120.499267578125	-824.1065063476562	-1511.12060546875	1106.36181640625	-749.1185913085938	-1341.84716796875	896.587890625	-789.3348388671875	-1425.399536132812	869.1959228515625	-825.439453125	-1448.783447265625	1010.192504882812	-834.1424560546875	-1318.442504882812	712.4990844726562	-764.2728271484375	-1398.787109375	801.4737548828125	-821.150634765625	-1327.751953125	818.1763305664062	-808.2621459960938	-1472.790283203125	1494.645263671875	-384.3518981933594	-1489.64599609375	1427.961181640625	-314.3057250976562	-1485.039916992188	1140.676147460938	-250.5074157714844	-1493.589965820312	1128.405029296875	-348.1773376464844	-1340.459106445312	917.44677734375	-259.8869323730469	-1413.843505859375	901.2899780273438	-210.7372894287109	-1458.09814453125	1071.18017578125	-229.2587127685547	-1325.937866210938	724.9278564453125	-273.5081481933594	-1313.118530273438	824.1668701171875	-247.5069885253906	-1384.68896484375	819.6769409179688	-208.0751037597656	-1476.867919921875	1670.181518554688	-475.6600952148438	-1359.26318359375	1744.618041992188	-644.6632690429688	-1324.010864257812	1744.893920898438	-519.5648193359375	-1520.08837890625	1676.310913085938	-605.5039672851562	-1440.540771484375	993.7391967773438	-728.7942504882812	-1321.208129882812	1044.134521484375	-411.6369934082031	-1317.287353515625	1031.057983398438	-668.4849853515625	-1424.896362304688	497.4839172363281	-694.586669921875	-1416.941162109375	639.4548950195312	-721.5302124023438	-1533.795288085938	39.56288146972656	-697.4271850585938	-1476.414672851562	274.8861389160156	-708.568359375	-1311.9580078125	39.70022201538086	-688.9766845703125	-1359.237182617188	41.13835144042969	-637.9498901367188	-1429.730102539062	31.09209251403809	-746.1697998046875	-1577.811157226562	39.15781402587891	-624.7105102539062	-1418.046752929688	516.0557250976562	-374.0833129882812	-1361.868286132812	781.72900390625	-345.1946105957031	-1520.687377929688	37.00870895385742	-368.8074951171875	-1413.064697265625	396.1123657226562	-390.2812194824219	-1297.551635742188	40.41745376586914	-406.4764709472656	-1353.712646484375	38.40492630004883	-450.9015808105469	-1407.225463867188	37.19412612915039	-335.9388427734375	-1571.732299804688	32.61026382446289	-435.8569030761719	-1409.804077148438	1014.434387207031	-358.5086669921875	nan	nan	nan	
72	0.71	-1556.586181640625	1053.618774414062	-492.0107727050781	-1548.637451171875	1052.7236328125	-616.2052001953125	-1551.092163085938	1089.31201171875	-551.3651733398438	-1302.373901367188	1301.97265625	-548.6907348632812	-1590.283203125	1242.271850585938	-556.5474243164062	-1534.455322265625	1514.43359375	-567.6403198242188	-1332.514770507812	1414.628784179688	-560.4118041992188	-1597.998413085938	1337.926391601562	-458.9122619628906	-1538.64013671875	1487.33984375	-669.3259887695312	-1460.431030273438	1475.14453125	-747.016845703125	-1485.782592773438	1338.942993164062	-817.2723388671875	-1466.279907226562	1120.337890625	-824.8773193359375	-1510.596069335938	1106.287963867188	-750.0025024414062	-1341.7890625	896.1111450195312	-789.75244140625	-1425.216552734375	868.947509765625	-826.0868530273438	-1448.225952148438	1010.006774902344	-834.85498046875	-1318.65576171875	712.0574340820312	-764.5078125	-1398.8515625	801.143310546875	-821.6786499023438	-1327.820678710938	817.6100463867188	-808.5149536132812	-1472.837646484375	1494.539306640625	-385.2747497558594	-1489.7939453125	1427.828369140625	-315.2514343261719	-1485.15771484375	1140.624145507812	-251.5356903076172	-1493.36328125	1128.283813476562	-349.2154846191406	-1341.114135742188	917.026611328125	-260.0284423828125	-1414.649536132812	901.23193359375	-211.0906066894531	-1458.361083984375	1071.163696289062	-230.0845184326172	-1327.462890625	724.1361083984375	-273.1751403808594	-1314.038696289062	823.6926879882812	-247.3464813232422	-1385.698120117188	819.54443359375	-208.1343078613281	-1476.81640625	1670.302001953125	-476.927978515625	-1357.33056640625	1744.0263671875	-644.8799438476562	-1323.142944335938	1744.180786132812	-519.5305786132812	-1518.903930664062	1676.706909179688	-607.155029296875	-1440.010131835938	993.5498657226562	-729.4509887695312	-1320.7587890625	1044.14599609375	-412.28271484375	-1316.71435546875	1030.8828125	-669.0946044921875	-1426.074584960938	497.3742065429688	-694.7608642578125	-1417.346435546875	639.2731323242188	-721.89990234375	-1533.797119140625	39.55264282226562	-697.4119262695312	-1477.111694335938	274.9855041503906	-708.690673828125	-1311.944091796875	39.6908073425293	-688.9852905273438	-1359.23388671875	41.13356018066406	-637.9630737304688	-1429.728881835938	31.09032249450684	-746.167236328125	-1577.832397460938	39.14419174194336	-624.7041015625	-1418.425537109375	516.1062622070312	-374.38427734375	-1361.50390625	781.7117309570312	-345.767578125	-1520.664794921875	37.05755996704102	-368.8660278320312	-1413.306396484375	396.2607421875	-390.4767761230469	-1297.518310546875	40.387939453125	-406.4725036621094	-1353.698486328125	38.38851165771484	-450.9070739746094	-1407.220703125	37.20915603637695	-335.9595031738281	-1571.706176757812	32.62270736694336	-435.9165344238281	-1409.297119140625	1014.39990234375	-359.1795043945312	nan	nan	nan	
73	0.72	-1556.058349609375	1053.503173828125	-492.7233276367188	-1548.021484375	1052.490478515625	-616.9185180664062	-1550.609008789062	1089.116088867188	-552.1173706054688	-1301.966796875	1301.908569335938	-549.3087768554688	-1589.892578125	1242.021850585938	-557.5359497070312	-1534.143432617188	1514.173095703125	-568.6475219726562	-1332.12744140625	1414.53955078125	-561.0899658203125	-1597.776977539062	1337.686767578125	-459.9764709472656	-1538.143920898438	1487.125	-670.3356323242188	-1459.79052734375	1474.954833984375	-747.8843383789062	-1485.010498046875	1338.784790039062	-818.250244140625	-1465.477905273438	1120.179077148438	-825.6897583007812	-1510.032836914062	1106.18701171875	-750.9334716796875	-1341.697387695312	895.6348266601562	-790.2752685546875	-1425.004150390625	868.7041625976562	-826.8447265625	-1447.61474609375	1009.825622558594	-835.6358032226562	-1318.781372070312	711.61572265625	-764.8484497070312	-1398.872802734375	800.8171997070312	-822.33447265625	-1327.86279296875	817.0565795898438	-808.8948364257812	-1472.865600585938	1494.436767578125	-386.20068359375	-1489.929321289062	1427.700439453125	-316.2058410644531	-1485.300048828125	1140.541015625	-252.6474761962891	-1493.14794921875	1128.163818359375	-350.349365234375	-1341.743774414062	916.6123046875	-260.2948608398438	-1415.431518554688	901.1362915039062	-211.6310272216797	-1458.630615234375	1071.1005859375	-231.0064544677734	-1328.756958007812	723.458251953125	-273.0618286132812	-1314.868896484375	823.2570190429688	-247.3424835205078	-1386.651489257812	819.3784790039062	-208.3986968994141	-1476.781494140625	1670.473999023438	-478.2525634765625	-1355.34716796875	1743.395141601562	-645.1034545898438	-1322.320434570312	1743.455932617188	-519.5046997070312	-1517.697875976562	1677.123046875	-608.8871459960938	-1439.483764648438	993.33203125	-730.1084594726562	-1320.30615234375	1044.129638671875	-412.970947265625	-1316.12158203125	1030.681518554688	-669.7357177734375	-1427.271606445312	497.2538146972656	-694.9109497070312	-1417.804321289062	639.072021484375	-722.23681640625	-1533.798828125	39.54543304443359	-697.3821411132812	-1477.82275390625	275.072998046875	-708.7951049804688	-1311.928833007812	39.68238830566406	-688.9926147460938	-1359.228149414062	41.12625885009766	-637.9727783203125	-1429.731689453125	31.09101295471191	-746.1622314453125	-1577.85302734375	39.13072967529297	-624.6800537109375	-1418.80078125	516.1524658203125	-374.6818542480469	-1361.180053710938	781.684814453125	-346.3627319335938	-1520.6435546875	37.1046028137207	-368.9212036132812	-1413.556884765625	396.3850402832031	-390.6878967285156	-1297.480224609375	40.3515739440918	-406.4657287597656	-1353.682250976562	38.37199401855469	-450.9138793945312	-1407.212890625	37.22730255126953	-335.982666015625	-1571.683227539062	32.63479232788086	-435.9736328125	-1408.652587890625	1014.386169433594	-359.8457946777344	nan	nan	nan	
74	0.73	-1555.503662109375	1053.39990234375	-493.4408569335938	-1547.42041015625	1052.277465820312	-617.6463623046875	-1550.085327148438	1088.922607421875	-552.8731689453125	-1301.516357421875	1301.846313476562	-549.9494018554688	-1589.478149414062	1241.758666992188	-558.5135498046875	-1533.818359375	1513.90283203125	-569.64306640625	-1331.7353515625	1414.4462890625	-561.7830810546875	-1597.531860351562	1337.436767578125	-461.033203125	-1537.66845703125	1486.900146484375	-671.3411865234375	-1459.167236328125	1474.7470703125	-748.7523803710938	-1484.263427734375	1338.60205078125	-819.2206420898438	-1464.649658203125	1120.014038085938	-826.5433349609375	-1509.429809570312	1106.052368164062	-751.9057006835938	-1341.55322265625	895.1585693359375	-790.8968505859375	-1424.76220703125	868.4600219726562	-827.7097778320312	-1446.952392578125	1009.642028808594	-836.4822387695312	-1318.830444335938	711.1676635742188	-765.3056640625	-1398.847534179688	800.4926147460938	-823.1177978515625	-1327.867065429688	816.5137939453125	-809.407470703125	-1472.86279296875	1494.319580078125	-387.1254272460938	-1490.036376953125	1427.565063476562	-317.1641235351562	-1485.465087890625	1140.415893554688	-253.8185882568359	-1492.953369140625	1128.033325195312	-351.5534362792969	-1342.332153320312	916.2017211914062	-260.6918029785156	-1416.171264648438	900.9886474609375	-212.3516998291016	-1458.90966796875	1070.979858398438	-232.010986328125	-1329.805053710938	722.8873291015625	-273.1837158203125	-1315.604248046875	822.8577880859375	-247.5113372802734	-1387.528564453125	819.167724609375	-208.8731994628906	-1476.770751953125	1670.697875976562	-479.6384887695312	-1353.3251953125	1742.725708007812	-645.33837890625	-1321.560668945312	1742.720581054688	-519.488037109375	-1516.472778320312	1677.549682617188	-610.7006225585938	-1438.958374023438	993.0867309570312	-730.7662353515625	-1319.83984375	1044.071411132812	-413.7037963867188	-1315.513793945312	1030.4541015625	-670.404052734375	-1428.488891601562	497.1270751953125	-695.0465087890625	-1418.318969726562	638.857177734375	-722.5464477539062	-1533.801025390625	39.54096603393555	-697.3402709960938	-1478.542358398438	275.1528930664062	-708.8931274414062	-1311.91162109375	39.67534637451172	-688.9991455078125	-1359.220581054688	41.11725234985352	-637.9793701171875	-1429.739135742188	31.09288787841797	-746.1564331054688	-1577.873657226562	39.11775588989258	-624.6416015625	-1419.148071289062	516.192626953125	-374.9760131835938	-1360.903076171875	781.6480102539062	-346.9637145996094	-1520.625366210938	37.15141296386719	-368.9733581542969	-1413.813232421875	396.4832763671875	-390.9184875488281	-1297.436889648438	40.30866241455078	-406.4573364257812	-1353.664306640625	38.35513305664062	-450.9237060546875	-1407.203247070312	37.24851608276367	-336.0082397460938	-1571.662475585938	32.64606094360352	-436.0273742675781	-1407.874755859375	1014.400207519531	-360.5066833496094	nan	nan	nan	
